<?xml version="1.0" encoding="UTF-8"?>
<!DOCTYPE svg PUBLIC "-//W3C//DTD SVG 1.1//EN" "http://www.w3.org/Graphics/SVG/1.1/DTD/svg11.dtd">
<!-- Creator: CorelDRAW -->
<svg xmlns="http://www.w3.org/2000/svg" xml:space="preserve" width="6.82666in" height="6.82666in" style="shape-rendering:geometricPrecision; text-rendering:geometricPrecision; image-rendering:optimizeQuality; fill-rule:evenodd; clip-rule:evenodd"
viewBox="0 0 6.82666 6.82666"
 xmlns:xlink="http://www.w3.org/1999/xlink">
 <defs>
  <style type="text/css">
   <![CDATA[
    .fil2 {fill:none}
    .fil1 {fill:#C2185B}
    .fil0 {fill:#EC407A}
    .fil5 {fill:#558B2F;fill-rule:nonzero}
    .fil4 {fill:#9CCC65;fill-rule:nonzero}
    .fil6 {fill:#FFC400;fill-rule:nonzero}
    .fil3 {fill:#FFFFFE;fill-rule:nonzero}
   ]]>
  </style>
   <clipPath id="id0">
    <path d="M3.41333 -3.93701e-006c1.88513,0 3.41333,1.5282 3.41333,3.41333 0,1.88513 -1.5282,3.41333 -3.41333,3.41333 -1.88513,0 -3.41333,-1.5282 -3.41333,-3.41333 0,-1.88513 1.5282,-3.41333 3.41333,-3.41333z"/>
   </clipPath>
 </defs>
 <g id="Layer_x0020_1">
  <metadata id="CorelCorpID_0Corel-Layer"/>
  <path class="fil0" d="M3.41333 -3.93701e-006c1.88513,0 3.41333,1.5282 3.41333,3.41333 0,1.88513 -1.5282,3.41333 -3.41333,3.41333 -1.88513,0 -3.41333,-1.5282 -3.41333,-3.41333 0,-1.88513 1.5282,-3.41333 3.41333,-3.41333z"/>
  <g style="clip-path:url(#id0)">
   <g id="_357804968">
    <g>
     <polygon id="_4343091361" class="fil1" points="3.467,1.63885 7.25327,5.42512 7.2735,5.45557 7.29263,5.48548 7.3107,5.51487 7.32772,5.54374 7.3437,5.57207 7.35868,5.59988 7.37266,5.62715 7.38567,5.6539 7.39773,5.68012 7.40886,5.7058 7.41908,5.73096 7.4284,5.75558 7.43685,5.77967 7.44446,5.80323 7.45122,5.82625 7.45718,5.84874 7.46233,5.87069 7.46672,5.89211 7.47035,5.91299 7.47326,5.93333 7.47544,5.95314 7.47693,5.97241 7.47774,5.99114 7.47791,6.00933 7.47743,6.02698 7.47634,6.0441 7.47465,6.06067 7.47239,6.0767 7.46957,6.09219 7.46622,6.10713 7.46235,6.12153 7.45798,6.13539 3.67171,2.34912 3.67608,2.33526 3.67995,2.32086 3.68331,2.30591 3.68612,2.29043 3.68839,2.2744 3.69007,2.25783 3.69116,2.24071 3.69164,2.22306 3.69148,2.20487 3.69066,2.18614 3.68917,2.16687 3.68699,2.14706 3.68409,2.12672 3.68046,2.10584 3.67607,2.08442 3.67091,2.06246 3.66495,2.03998 3.65819,2.01696 3.65059,1.9934 3.64213,1.96931 3.63281,1.94469 3.62259,1.91953 3.61146,1.89385 3.59941,1.86763 3.58639,1.84088 3.57241,1.81361 3.55743,1.7858 3.54145,1.75746 3.52443,1.7286 3.50637,1.69921 3.48723,1.6693 "/>
     <polygon id="_434309160" class="fil1" points="3.67171,2.34912 7.45798,6.13539 7.4547,6.14464 7.45121,6.15366 7.44752,6.16244 7.44363,6.17098 7.43955,6.1793 7.43528,6.18737 7.43083,6.19522 7.42621,6.20283 7.42141,6.2102 7.41644,6.21735 7.41132,6.22425 7.40604,6.23093 7.4006,6.23737 7.39502,6.24358 7.38929,6.24956 7.38343,6.2553 7.37743,6.26081 7.37131,6.26609 7.36506,6.27114 7.3587,6.27596 7.35222,6.28054 7.34563,6.28489 7.33895,6.28901 7.33216,6.2929 7.32528,6.29656 7.31831,6.29999 7.31126,6.30319 7.30413,6.30615 7.29693,6.30889 7.28966,6.3114 7.28232,6.31367 7.27493,6.31572 3.48866,2.52945 3.49605,2.5274 3.50339,2.52513 3.51066,2.52262 3.51786,2.51988 3.52499,2.51691 3.53205,2.51372 3.53901,2.51029 3.54589,2.50663 3.55268,2.50274 3.55937,2.49862 3.56595,2.49427 3.57243,2.48969 3.5788,2.48487 3.58504,2.47982 3.59117,2.47454 3.59716,2.46903 3.60302,2.46329 3.60875,2.45731 3.61433,2.4511 3.61977,2.44466 3.62505,2.43798 3.63018,2.43107 3.63514,2.42393 3.63994,2.41656 3.64457,2.40894 3.64901,2.4011 3.65328,2.39302 3.65736,2.38471 3.66125,2.37617 3.66494,2.36739 3.66843,2.35837 "/>
     <polygon id="_434312712" class="fil1" points="3.338,2.52276 7.12427,6.30903 7.1174,6.30651 7.11058,6.3038 7.10381,6.30089 7.09709,6.29778 7.09044,6.29447 7.08385,6.29097 7.07733,6.28728 7.07089,6.28339 7.06452,6.2793 7.05823,6.27501 7.05203,6.27054 7.04592,6.26586 7.0399,6.26099 7.03398,6.25593 7.02815,6.25067 7.02244,6.24522 7.01683,6.23957 3.23057,2.4533 3.23617,2.45894 3.24189,2.4644 3.24771,2.46965 3.25363,2.47472 3.25965,2.47959 3.26576,2.48426 3.27196,2.48874 3.27825,2.49302 3.28462,2.49711 3.29107,2.501 3.29759,2.5047 3.30417,2.5082 3.31083,2.51151 3.31754,2.51461 3.32431,2.51753 3.33113,2.52024 "/>
     <polygon id="_434312472" class="fil1" points="3.91652,2.75181 7.70279,6.53808 7.70765,6.54343 7.71198,6.54923 7.71576,6.55544 7.71893,6.56202 7.72146,6.56894 7.72332,6.57616 7.72446,6.58364 7.72485,6.59134 3.93858,2.80507 3.93819,2.79737 3.93705,2.78989 3.9352,2.78267 3.93266,2.77575 3.92949,2.76917 3.92572,2.76296 3.92138,2.75716 "/>
     <polygon id="_434312544" class="fil1" points="3.48866,2.52945 7.27493,6.31572 7.27493,6.51602 3.48866,2.72974 "/>
     <polygon id="_434312760" class="fil1" points="3.93858,3.03845 7.72485,6.82472 7.72485,6.85195 3.93858,3.06568 "/>
     <polygon id="_434312376" class="fil1" points="3.93858,3.06568 7.72485,6.85195 7.72485,8.99094 3.93858,5.20467 "/>
     <polygon id="_434312904" class="fil1" points="3.93858,5.20467 7.72485,8.99094 7.72446,8.99864 7.72332,9.00612 7.72146,9.01334 7.71893,9.02026 7.71576,9.02685 7.71198,9.03306 7.70765,9.03886 7.70279,9.04421 7.69744,9.04907 7.69164,9.05341 7.68543,9.05718 7.67884,9.06035 7.67192,9.06289 7.6647,9.06474 7.65722,9.06588 7.64952,9.06627 3.86326,5.28 3.87096,5.27961 3.87844,5.27847 3.88565,5.27661 3.89257,5.27408 3.89916,5.27091 3.90537,5.26713 3.91117,5.2628 3.91652,5.25794 3.92138,5.25259 3.92572,5.24679 3.92949,5.24057 3.93266,5.23399 3.9352,5.22707 3.93705,5.21985 3.93819,5.21237 "/>
     <polygon id="_434312232" class="fil1" points="3.86326,5.28 7.64952,9.06627 6.74967,9.06627 2.96341,5.28 "/>
     <polygon id="_434312664" class="fil1" points="2.96341,5.28 6.74967,9.06627 6.74197,9.06588 6.73449,9.06474 6.72728,9.06289 6.72035,9.06035 6.71377,9.05718 6.70756,9.05341 6.70176,9.04907 2.91549,5.2628 2.92129,5.26713 2.9275,5.27091 2.93409,5.27408 2.94101,5.27661 2.94822,5.27847 2.9557,5.27961 "/>
     <polygon id="_434313240" class="fil1" points="3.93858,2.80507 7.72485,6.59134 7.72485,6.82472 3.93858,3.03845 "/>
     <polygon id="_434313216" class="fil1" points="3.40463,1.54666 7.19089,5.33293 7.25327,5.42512 3.467,1.63885 "/>
    </g>
    <path id="_357805280" class="fil1" d="M3.467 1.63885c0.22163,0.327535 0.253878,0.56535 0.204709,0.710268 -0.0339055,0.0999331 -0.103882,0.15972 -0.183055,0.180331l0 0.200295 0.374598 0c0.0415984,0 0.0753268,0.0337283 0.0753268,0.0753268l0 0.233382 0 0.0272244 0 2.13899c0,0.0416024 -0.0337283,0.0753307 -0.0753268,0.0753307l-0.89985 0c-0.0415984,0 -0.0753268,-0.0337283 -0.0753268,-0.0753307l0 -2.12862 0 -0.0264921 0 -0.244484c0,-0.0415984 0.0337283,-0.0753268 0.0753268,-0.0753268l0.374598 0 0 -0.206984c-0.0735354,-0.025815 -0.1395,-0.0852244 -0.175539,-0.177413 -0.057937,-0.148205 -0.0361575,-0.387362 0.17978,-0.706496l0.0623819 -0.092189 0.062378 0.092189z"/>
   </g>
  </g>
  <path class="fil2" d="M3.41333 -3.93701e-006c1.88513,0 3.41333,1.5282 3.41333,3.41333 0,1.88513 -1.5282,3.41333 -3.41333,3.41333 -1.88513,0 -3.41333,-1.5282 -3.41333,-3.41333 0,-1.88513 1.5282,-3.41333 3.41333,-3.41333z"/>
  <polygon class="fil3" points="3.48866,2.44634 3.48866,2.74629 3.338,2.74629 3.338,2.44634 "/>
  <path class="fil4" d="M3.93858 3.03845l0 2.16622c0,0.0416024 -0.0337283,0.0753307 -0.0753268,0.0753307l-0.89985 0c-0.0415984,0 -0.0753268,-0.0337283 -0.0753268,-0.0753307l0 -2.15511c0.135902,0.0167008 0.28115,0.0254252 0.436157,0.025811 0.190157,0.000464567 0.394685,-0.0116181 0.614346,-0.0369134z"/>
  <path class="fil5" d="M2.96341 2.72974l0.89985 0c0.0415984,0 0.0753268,0.0337283 0.0753268,0.0753268l0 0.260606c-0.222575,0.0276654 -0.426681,0.040874 -0.613307,0.0404173 -0.157787,-0.000393701 -0.303311,-0.0105709 -0.437197,-0.0300472l0 -0.270976c0,-0.0415984 0.0337283,-0.0753268 0.0753268,-0.0753268z"/>
  <path class="fil6" d="M3.467 1.63885c0.22163,0.327535 0.253878,0.56535 0.204709,0.710268 -0.0436496,0.128646 -0.147071,0.190764 -0.252945,0.188413 -0.103299,-0.00229134 -0.207378,-0.0670315 -0.256303,-0.192185 -0.057937,-0.148205 -0.0361575,-0.387362 0.17978,-0.706496l0.0623819 -0.092189 0.062378 0.092189z"/>
 </g>
</svg>
